Coordinates
version=1
nRows=14
nColumns=40
inDegrees=yes

Units are S.I. units (second, meters, Newtons, ...)
Angles are in degrees.

endheader
time	pelvis_tilt	pelvis_list	pelvis_rotation	pelvis_tx	pelvis_ty	pelvis_tz	hip_flexion_r	hip_adduction_r	hip_rotation_r	knee_angle_r	knee_angle_r_beta	ankle_angle_r	subtalar_angle_r	mtp_angle_r	hip_flexion_l	hip_adduction_l	hip_rotation_l	knee_angle_l	knee_angle_l_beta	ankle_angle_l	subtalar_angle_l	mtp_angle_l	lumbar_extension	lumbar_bending	lumbar_rotation	arm_flex_r	arm_add_r	arm_rot_r	elbow_flex_r	pro_sup_r	wrist_flex_r	wrist_dev_r	arm_flex_l	arm_add_l	arm_rot_l	elbow_flex_l	pro_sup_l	wrist_flex_l	wrist_dev_l
     31.57750000	     -1.06302851	     -5.07321154	      1.01224130	      1.12521070	      0.93617448	      0.41887939	     29.55798645	     -6.19334431	     -5.33868345	     54.33951289	     54.33951289	     -1.39282244	    -12.46221950	     -0.87269656	     10.98533773	     -6.53324635	     -7.72779759	     21.89190955	     21.89190955	     13.50407748	    -12.39988802	     -1.03440698	    -11.32628150	      5.86169629	      2.33481240	      2.85312325	    -11.80348203	     -1.45878651	     31.44443793	     46.45880297	      0.00000000	      0.00000000	     19.78678745	    -16.44930632	     -0.50207130	     57.50174673	     46.38342685	      0.00000000	      0.00000000
     31.59100000	     -1.24500233	     -5.06619771	      0.56990851	      1.12438527	      0.93632573	      0.41931554	     29.52207560	     -5.94803785	     -5.62510532	     50.55712681	     50.55712681	     -0.86948169	    -11.56297454	     -1.26863871	     10.50112099	     -6.55254281	     -8.16822423	     21.38849297	     21.38849297	     13.59221356	    -12.27707916	     -1.18730817	    -11.42115556	      5.85079927	      2.78113843	      1.53293259	    -11.82739041	     -1.26837471	     30.13983311	     46.48043391	      0.00000000	      0.00000000	     20.50259179	    -16.54111820	     -1.12746401	     59.62273474	     46.48210662	      0.00000000	      0.00000000
     31.60450000	     -1.58247685	     -5.14880497	      0.17893633	      1.12351146	      0.93617746	      0.41988921	     29.46438581	     -5.57549607	     -6.05986195	     46.35765391	     46.35765391	     -0.29153261	    -10.44443904	     -1.24313507	     10.27399572	     -6.66236998	     -8.46213349	     21.00943612	     21.00943612	     13.72390504	    -12.29876422	     -1.25032334	    -11.27811815	      5.99001590	      2.80419581	      0.34254235	    -11.81354635	     -1.18890126	     29.43670611	     46.49144864	      0.00000000	      0.00000000	     21.15677985	    -16.90701536	     -1.49635212	     60.72214407	     46.53627424	      0.00000000	      0.00000000
     31.61800000	     -1.83464540	     -5.17541790	     -0.23156164	      1.12276865	      0.93605950	      0.42057168	     29.12734850	     -5.23063440	     -6.58213606	     41.79389458	     41.79389458	      0.26527761	     -8.83371946	     -1.37354578	      9.91269547	     -6.72701770	     -8.83132753	     20.58752181	     20.58752181	     13.84667577	    -12.24374465	     -1.37227487	    -11.27015455	      6.04426759	      3.06625329	     -0.84271769	    -11.88637492	     -1.10478089	     28.68189136	     46.50415521	      0.00000000	      0.00000000	     21.75103698	    -17.05271449	     -1.91941025	     62.32677206	     46.60201720	      0.00000000	      0.00000000
     31.63150000	     -2.09932741	     -5.07599753	     -0.63846333	      1.12212289	      0.93572993	      0.42135676	     28.55926351	     -4.97405344	     -7.18636915	     36.75377015	     36.75377015	     -0.11078299	     -7.07392934	     -4.15182748	      9.54362741	     -6.67559783	     -9.32267264	     20.12082286	     20.12082286	     13.69172535	    -12.16016905	     -2.22418186	    -11.36512705	      5.90847170	      2.38146605	     -1.22958966	    -11.77917504	     -0.79439851	     27.58593729	     46.50329921	      0.00000000	      0.00000000	     20.65240448	    -17.79415326	     -3.86788437	     67.01827248	     46.85326231	      0.00000000	      0.00000000
     31.64500000	     -2.53293160	     -5.06549145	     -1.02148155	      1.12145483	      0.93515229	      0.42238796	     28.09710084	     -4.47332836	     -7.67146553	     31.68838028	     31.68838028	      0.28309814	     -5.00184988	     -3.71445624	      9.43472213	     -6.71625195	     -9.61244323	     19.79109225	     19.79109225	     13.81277856	    -12.17738760	     -2.29372655	    -11.13029570	      5.94078887	      2.55274143	     -2.30684156	    -11.79618585	     -0.70685148	     27.10626233	     46.50517061	      0.00000000	      0.00000000	     21.29946005	    -17.97175556	     -4.16340632	     67.84525240	     46.89724060	      0.00000000	      0.00000000
     31.65850000	     -2.77903801	     -4.99687814	     -1.36339726	      1.12106683	      0.93470516	      0.42345872	     27.24862418	     -4.06345764	     -8.44999568	     26.51711914	     26.51711914	      0.58137725	     -2.16094007	     -3.17929706	      9.10499933	     -6.70831656	     -9.96547061	     19.46768633	     19.46768633	     13.95417879	    -12.09075581	     -2.47917058	    -11.13174466	      5.90102787	      2.82717417	     -3.39590802	    -11.91292446	     -0.65825785	     26.75535939	     46.50353187	      0.00000000	      0.00000000	     21.81901976	    -18.03946708	     -4.53179071	     69.14877648	     46.95465582	      0.00000000	      0.00000000
     31.67200000	     -3.01465957	     -4.82047930	     -1.69398724	      1.12090963	      0.93403101	      0.42460837	     26.44297013	     -3.79973238	     -9.49800889	     21.77034935	     21.77034935	      1.06944287	      1.42083512	     -1.72471042	      8.71374251	     -6.58614172	    -10.39354694	     19.05538827	     19.05538827	     13.90544692	    -11.97510500	     -3.22554656	    -11.17096121	      5.69178566	      2.57581604	     -4.34001467	    -12.00441379	     -0.52252617	     27.21293264	     46.44587204	      0.00000000	      0.00000000	     21.42997305	    -18.32990007	     -5.77317066	     71.94393442	     47.12668392	      0.00000000	      0.00000000
     31.68550000	     -3.25344258	     -4.67460184	     -1.97727628	      1.12090478	      0.93326414	      0.42596415	     25.65748883	     -3.40762403	    -10.40336363	     17.44323066	     17.44323066	      1.55605557	      4.53191628	      0.89795325	      8.38151335	     -6.50516774	    -10.67987027	     18.76227855	     18.76227855	     13.99423093	    -11.92055894	     -3.72272493	    -11.13409441	      5.55689763	      2.60771480	     -5.22916823	    -12.09517353	     -0.36951969	     27.38271641	     46.40430484	      0.00000000	      0.00000000	     21.55708012	    -18.51429702	     -6.30290124	     73.39836070	     47.22353983	      0.00000000	      0.00000000
     31.69900000	     -3.51582575	     -4.53484744	     -2.24610060	      1.12110250	      0.93243984	      0.42750737	     25.05593213	     -2.98971863	    -11.21095589	     13.92582872	     13.92582872	      2.28080161	      7.09165709	      4.70518303	      8.04184067	     -6.43955179	    -11.00833845	     18.41448618	     18.41448618	     13.99280032	    -11.89450328	     -4.19386538	    -11.01672061	      5.43157726	      2.56429368	     -6.13570762	    -12.21872728	     -0.28182847	     27.76563553	     46.35311971	      0.00000000	      0.00000000	     21.54436343	    -18.62191733	     -6.79603992	     74.75010828	     47.33053466	      0.00000000	      0.00000000
     31.71250000	     -3.81126511	     -4.35874679	     -2.47608625	      1.12147849	      0.93142475	      0.42921008	     24.56177289	     -2.57757270	    -11.66457909	     11.01464970	     11.01464970	      1.96700921	      8.54025051	      5.69932477	      7.79114086	     -6.34284381	    -11.23048201	     18.18839660	     18.18839660	     14.18844708	    -11.86067987	     -4.31821598	    -10.78269296	      5.28263349	      2.65076392	     -6.77829454	    -12.20251907	     -0.28465352	     27.65256190	     46.35017232	      0.00000000	      0.00000000	     21.76626437	    -18.63311582	     -6.88984579	     75.33329936	     47.35352227	      0.00000000	      0.00000000
     31.72600000	     -3.85810876	     -4.23677804	     -2.68392794	      1.12222348	      0.93083231	      0.43097831	     24.02608894	     -2.28303430	    -12.67469811	      9.25251331	      9.25251331	      2.21236035	     10.35862135	      7.75911410	      7.15874350	     -6.30619561	    -11.59362419	     17.80348494	     17.80348494	     14.33692059	    -11.56948273	     -4.71302753	    -10.86039891	      5.17529437	      2.66025457	     -7.48306944	    -12.34167991	     -0.52343913	     28.19371475	     46.32951957	      0.00000000	      0.00000000	     21.63256393	    -18.75052251	     -7.24089889	     76.63731291	     47.41948680	      0.00000000	      0.00000000
     31.73950000	     -4.14588521	     -4.12063838	     -2.84253800	      1.12292817	      0.92985405	      0.43292261	     23.92337364	     -1.98051822	    -13.01836562	      8.34915643	      8.34915643	      1.93819088	     10.52998767	      8.11491569	      6.89796816	     -6.27904750	    -11.71279145	     17.59251560	     17.59251560	     14.53303354	    -11.58020285	     -4.76564163	    -10.57257341	      5.11428082	      2.66883274	     -7.92797762	    -12.40912284	     -0.56797330	     28.13816844	     46.32974634	      0.00000000	      0.00000000	     21.64885093	    -18.80694523	     -7.34481299	     76.90466595	     47.43469226	      0.00000000	      0.00000000
     31.75300000	     -4.30408986	     -4.01693326	     -2.97880869	      1.12380858	      0.92899899	      0.43493806	     23.83300894	     -1.78079159	    -13.33535052	      8.32982121	      8.32982121	      1.82734581	     10.36922645	      8.15415780	      6.57518929	     -6.28081150	    -11.82171566	     17.55910335	     17.55910335	     14.79192513	    -11.68962212	     -4.83110015	    -10.39791466	      5.05118378	      2.61109668	     -8.00562955	    -12.44281464	     -0.58233113	     28.13007524	     46.33030358	      0.00000000	      0.00000000	     21.65690901	    -18.77816601	     -7.34359682	     76.95598119	     47.43593121	      0.00000000	      0.00000000
